<?xml version="1.0" encoding="UTF-8"?>
<!DOCTYPE svg PUBLIC "-//W3C//DTD SVG 1.1//EN" "http://www.w3.org/Graphics/SVG/1.1/DTD/svg11.dtd">
<!-- Creator: CorelDRAW -->
<svg xmlns="http://www.w3.org/2000/svg" xml:space="preserve" width="4.48819in" height="6.37795in" version="1.1" style="shape-rendering:geometricPrecision; text-rendering:geometricPrecision; image-rendering:optimizeQuality; fill-rule:evenodd; clip-rule:evenodd"
viewBox="0 0 4488.19 6377.95"
 xmlns:xlink="http://www.w3.org/1999/xlink"
 xmlns:xodm="http://www.corel.com/coreldraw/odm/2003">
 <defs>
  <style type="text/css">
   <![CDATA[
    .fil1 {fill:#022E4D}
    .fil0 {fill:#2BCE71}
   ]]>
  </style>
 </defs>
 <g id="Layer_x0020_1">
  <metadata id="CorelCorpID_0Corel-Layer"/>
  <g id="_1161992144">
   <path class="fil0" d="M981.12 3505.32l940.35 1.59c-29.33,-35.03 -174.64,-169.05 -196.94,-221.9l670.03 -674.81c101.94,-102.44 224.31,-208.69 425.87,-246.26 251.05,-46.8 380.11,24.11 559.68,103.52 -67.34,-208.63 -495.13,-266.86 -725.83,-262.77 -369.72,6.56 -490.65,101.68 -690.26,303.5 -175.5,177.44 -330.19,324.41 -493.6,491.56 -87.02,89 -451.47,434.52 -489.29,505.57z"/>
   <path class="fil1" d="M2966.09 3008.5c-102.73,116.61 -223.06,226.87 -336.43,338.28 -252.19,247.83 -464.32,539.32 -791.76,586.99 -179.31,26.1 -453.33,-27.73 -538.94,-122.26 2.78,72.9 161.93,170.35 257.21,208.54 130.51,52.31 284.65,71.2 441.41,70.39 393.35,-2.02 533.08,-109.09 718.49,-294.31 168.46,-168.28 323.68,-324.41 492.68,-492.4 167.55,-166.56 344.4,-331.91 499.49,-500.99l-936.54 -15.89c24.89,42.98 64.24,76.2 97.9,110.04 48.41,48.66 68.63,56.84 96.49,111.61z"/>
  </g>
 </g>
</svg>
